<?xml version="1.0" encoding="UTF-8"?>
<svg xmlns="http://www.w3.org/2000/svg" xmlns:xlink="http://www.w3.org/1999/xlink" width="76pt" height="59pt" viewBox="0 0 76 59" version="1.1">
<g id="surface1">
<path style=" stroke:none;fill-rule:evenodd;fill:rgb(19.599915%,30.599976%,60.798645%);fill-opacity:1;" d="M 53.820313 23.824219 C 53.960938 26.429688 54.398438 29.371094 54.664063 31.988281 C 54.941406 34.730469 55.210938 37.476563 55.496094 40.191406 C 55.84375 43.523438 54.386719 44.667969 51.613281 45.316406 C 50.402344 45.597656 48.863281 45.75 47.542969 45.667969 C 46.652344 45.609375 44.386719 45.3125 43.804688 44.894531 L 44.984375 42.265625 C 46.375 42.390625 47.351563 43.015625 49.050781 42.71875 C 51.039063 42.375 50.90625 41.066406 50.894531 40.035156 C 50.238281 40.460938 50.144531 41.113281 48.269531 41.46875 C 43.730469 42.332031 43.75 37.917969 43.339844 34.828125 C 43.261719 34.222656 43.191406 33.640625 43.125 33.058594 C 43.019531 32.160156 42.851563 31.933594 43.351563 31.332031 C 44.566406 29.863281 45.609375 28.324219 46.773438 26.929688 C 48.800781 24.5 48.046875 24.5 49.53125 25.140625 L 49.480469 24.253906 Z M 60.972656 22.878906 C 62.121094 22.726563 63.597656 22.804688 64.621094 23.167969 C 66.914063 23.980469 67.117188 26.597656 67.394531 28.398438 C 67.621094 29.863281 67.789063 30.265625 67.515625 31.730469 C 67.097656 33.964844 66.667969 36.152344 66.21875 38.359375 C 65.734375 40.734375 65.960938 41.816406 64.964844 42.128906 C 64.6875 42.214844 64.445313 42.257813 64.144531 42.308594 C 61.113281 42.835938 58.292969 42.6875 57.125 39.785156 C 56.394531 37.96875 56.261719 35.074219 56.042969 32.949219 C 55.402344 26.738281 54.660156 23.703125 60.972656 22.878906 Z M 68.851563 26.390625 L 68.851563 11.683594 C 67.246094 11.757813 60.949219 12.003906 59.859375 12.148438 C 57.164063 12.515625 55.910156 14.773438 54.664063 16.378906 C 53.953125 17.292969 53.296875 18.121094 52.597656 19.023438 L 44.3125 29.691406 C 43.597656 30.589844 42.96875 31.460938 42.253906 32.34375 C 39.578125 35.632813 36.671875 39.613281 33.980469 43.023438 C 33.230469 43.976563 32.726563 44.558594 31.757813 45.511719 L 29.214844 47.824219 L 64.625 47.84375 Z M 60.464844 28.359375 C 60.710938 30.726563 60.957031 33.125 61.1875 35.488281 C 61.285156 36.445313 61.257813 38.261719 61.867188 38.753906 C 62.285156 39.085938 63.011719 39.007813 63.320313 38.667969 C 63.679688 38.269531 63.558594 37.578125 63.492188 37.007813 C 63.214844 34.625 63.007813 32.230469 62.773438 29.824219 C 62.703125 29.109375 62.582031 26.96875 62.148438 26.535156 C 61.773438 26.171875 60.933594 26.304688 60.632813 26.65625 C 60.277344 27.074219 60.402344 27.753906 60.464844 28.359375 Z M 48.144531 27.6875 C 47.242188 28.058594 47.632813 29.480469 47.722656 30.355469 L 48.339844 36.351563 C 48.4375 37.398438 48.632813 38.449219 49.945313 38.027344 C 50.855469 37.734375 50.476563 36.25 50.394531 35.378906 L 49.773438 29.394531 C 49.648438 28.410156 49.480469 27.136719 48.144531 27.6875 "/>
<path style=" stroke:none;fill-rule:evenodd;fill:rgb(23.498535%,30.999756%,59.599304%);fill-opacity:1;" d="M 19.160156 42.449219 L 19.949219 42.511719 L 19.953125 38.492188 L 20.691406 42.472656 C 21.332031 42.527344 21.109375 42.535156 21.402344 40.96875 C 21.476563 40.574219 21.640625 39.457031 21.84375 39.160156 L 21.871094 42.449219 L 22.6875 42.488281 L 22.675781 37.027344 L 21.53125 36.972656 L 21.023438 39.808594 C 20.960938 39.996094 20.953125 39.984375 20.917969 40.046875 C 20.554688 39.351563 20.464844 37.886719 20.292969 37.003906 L 19.167969 36.996094 L 19.160156 42.449219 "/>
<path style=" stroke:none;fill-rule:evenodd;fill:rgb(21.199036%,30.599976%,59.999084%);fill-opacity:1;" d="M 27.402344 37.789063 C 28.070313 37.792969 28.25 37.894531 28.246094 38.585938 C 28.242188 39.316406 28.09375 39.378906 27.390625 39.386719 Z M 26.546875 42.46875 L 27.394531 42.484375 C 27.398438 42.070313 27.398438 41.679688 27.394531 41.292969 L 27.425781 40.40625 C 27.492188 40.167969 27.417969 40.324219 27.539063 40.175781 C 27.898438 40.242188 27.773438 40.035156 28.035156 41.203125 C 28.136719 41.65625 28.222656 42.066406 28.3125 42.492188 L 29.183594 42.503906 C 29.105469 41.90625 28.894531 41.234375 28.757813 40.675781 C 28.445313 39.394531 28.976563 40.011719 29.097656 38.957031 C 29.320313 37.039063 28.304688 36.792969 26.554688 37.015625 L 26.546875 42.46875 "/>
<path style=" stroke:none;fill-rule:evenodd;fill:rgb(21.199036%,30.599976%,59.999084%);fill-opacity:1;" d="M 24.625 38.289063 L 24.898438 40.53125 L 24.277344 40.519531 Z M 23.152344 42.476563 L 23.988281 42.484375 L 24.15625 41.324219 L 25.023438 41.304688 L 25.179688 42.453125 L 26.0625 42.503906 L 25.15625 36.976563 L 24.054688 36.992188 L 23.152344 42.476563 "/>
<path style=" stroke:none;fill-rule:evenodd;fill:rgb(22.698975%,30.999756%,58.799744%);fill-opacity:1;" d="M 16.609375 41.015625 L 15.882813 41.085938 C 15.902344 43.550781 19.238281 42.820313 18.472656 40.636719 C 18.128906 39.660156 16.160156 38.535156 16.941406 37.808594 C 17.484375 37.304688 17.601563 38.101563 17.710938 38.347656 L 18.503906 38.273438 C 18.34375 35.832031 15.039063 37.035156 16.101563 38.992188 C 16.433594 39.601563 18.617188 41.441406 17.371094 41.757813 C 16.734375 41.921875 16.785156 41.363281 16.609375 41.015625 "/>
<path style=" stroke:none;fill-rule:evenodd;fill:rgb(21.199036%,30.599976%,59.999084%);fill-opacity:1;" d="M 12.324219 42.46875 L 13.191406 42.496094 C 13.132813 38.277344 13.832031 39.296875 14.132813 36.976563 L 13.308594 36.992188 L 12.792969 39.101563 C 12.539063 38.707031 12.324219 37.539063 12.175781 37.003906 L 11.363281 36.972656 C 11.503906 38.746094 12.40625 38.597656 12.324219 42.46875 "/>
<path style=" stroke:none;fill-rule:evenodd;fill:rgb(21.199036%,30.599976%,59.999084%);fill-opacity:1;" d="M 7.023438 42.457031 L 7.886719 42.503906 L 7.898438 40.03125 L 8.867188 40.015625 L 8.863281 39.226563 L 7.886719 39.203125 L 7.890625 37.808594 L 9.230469 37.785156 L 9.226563 36.976563 L 7.03125 36.992188 L 7.023438 42.457031 "/>
<path style=" stroke:none;fill-rule:evenodd;fill:rgb(21.199036%,30.599976%,59.999084%);fill-opacity:1;" d="M 29.320313 37.785156 L 30.203125 37.804688 L 30.207031 42.496094 L 31.039063 42.496094 L 31.046875 37.785156 L 31.929688 37.769531 L 31.925781 37.011719 L 29.335938 36.980469 L 29.320313 37.785156 "/>
<path style=" stroke:none;fill-rule:evenodd;fill:rgb(23.899841%,30.999756%,58.799744%);fill-opacity:1;" d="M 9.632813 42.460938 L 11.792969 42.5 L 11.789063 41.714844 L 10.507813 41.691406 L 10.484375 36.984375 L 9.636719 37 L 9.632813 42.460938 "/>
<path style=" stroke:none;fill-rule:nonzero;fill:rgb(19.599915%,30.599976%,60.798645%);fill-opacity:1;" d="M 60.824219 42.03125 L 61.175781 39.542969 L 61.445313 39.527344 L 61.714844 39.515625 L 62.371094 41.960938 L 62.152344 41.96875 L 61.929688 41.980469 L 61.808594 41.449219 L 61.324219 41.472656 L 61.265625 42.011719 L 61.046875 42.019531 Z M 61.476563 39.988281 L 61.363281 41.101563 L 61.726563 41.085938 Z M 62.683594 41.945313 L 62.53125 39.476563 L 62.757813 39.46875 L 62.984375 39.457031 L 63.140625 41.921875 L 62.914063 41.933594 Z M 63.515625 41.90625 L 63.359375 39.441406 L 63.589844 39.429688 L 64.03125 39.410156 C 64.273438 39.398438 64.445313 39.4375 64.554688 39.53125 C 64.660156 39.625 64.722656 39.789063 64.734375 40.019531 C 64.753906 40.28125 64.710938 40.457031 64.613281 40.554688 C 64.566406 40.601563 64.488281 40.640625 64.382813 40.671875 L 64.40625 40.667969 C 64.53125 40.664063 64.628906 40.703125 64.699219 40.792969 C 64.769531 40.878906 64.804688 41.007813 64.808594 41.175781 C 64.808594 41.269531 64.816406 41.371094 64.820313 41.472656 C 64.832031 41.582031 64.839844 41.664063 64.847656 41.71875 C 64.855469 41.773438 64.863281 41.8125 64.875 41.839844 L 64.644531 41.851563 L 64.417969 41.863281 C 64.410156 41.835938 64.402344 41.796875 64.394531 41.742188 C 64.390625 41.6875 64.382813 41.605469 64.375 41.496094 L 64.355469 41.195313 C 64.351563 41.074219 64.324219 40.984375 64.277344 40.9375 C 64.230469 40.890625 64.152344 40.867188 64.042969 40.871094 L 63.910156 40.878906 L 63.972656 41.886719 L 63.746094 41.894531 Z M 63.886719 40.5 L 64.011719 40.496094 C 64.128906 40.488281 64.207031 40.460938 64.242188 40.410156 C 64.28125 40.363281 64.292969 40.265625 64.285156 40.117188 C 64.277344 39.984375 64.25 39.894531 64.207031 39.84375 C 64.160156 39.800781 64.082031 39.777344 63.96875 39.78125 L 63.84375 39.789063 L 63.886719 40.5 "/>
</g>
</svg>
